<?xml version="1.0" encoding="UTF-8" standalone="no"?>
<!-- Generator: Adobe Illustrator 16.2.1, SVG Export Plug-In . SVG Version: 6.00 Build 0)  -->

<svg
   xmlns:dc="http://purl.org/dc/elements/1.1/"
   xmlns:cc="http://creativecommons.org/ns#"
   xmlns:rdf="http://www.w3.org/1999/02/22-rdf-syntax-ns#"
   xmlns:svg="http://www.w3.org/2000/svg"
   xmlns="http://www.w3.org/2000/svg"
   xmlns:sodipodi="http://sodipodi.sourceforge.net/DTD/sodipodi-0.dtd"
   xmlns:inkscape="http://www.inkscape.org/namespaces/inkscape"
   version="1.1"
   id="Layer_1"
   x="0px"
   y="0px"
   width="512px"
   height="512px"
   viewBox="0 0 512 512"
   style="enable-background:new 0 0 512 512;"
   xml:space="preserve"
   inkscape:version="0.91 r13725"
   sodipodi:docname="ios-cloud-upload-outline.svg"><metadata
     id="metadata17"><rdf:RDF><cc:Work
         rdf:about=""><dc:format>image/svg+xml</dc:format><dc:type
           rdf:resource="http://purl.org/dc/dcmitype/StillImage" /></cc:Work></rdf:RDF></metadata><defs
     id="defs15" /><sodipodi:namedview
     pagecolor="#ffffff"
     bordercolor="#666666"
     borderopacity="1"
     objecttolerance="10"
     gridtolerance="10"
     guidetolerance="10"
     inkscape:pageopacity="0"
     inkscape:pageshadow="2"
     inkscape:window-width="1366"
     inkscape:window-height="718"
     id="namedview13"
     showgrid="false"
     inkscape:zoom="0.65186406"
     inkscape:cx="257.53406"
     inkscape:cy="256"
     inkscape:window-x="0"
     inkscape:window-y="25"
     inkscape:window-maximized="1"
     inkscape:current-layer="g3" /><g
     id="g3"><g
       id="g5"
       transform="matrix(0.72335343,0,0,0.6504664,68.266682,60.993614)"
       style="fill:#ffffff"><polygon
         points="319,260.4 264.4,205.8 264.4,447.6 247.9,447.6 247.9,205.8 193.3,260.4 181.7,248.8 256.2,174.5 330.7,248.8 "
         id="polygon7"
         style="fill:#ffffff" /></g><g
       id="g9"
       style="fill:#ffffff"><path
         d="M399.3,183.6c0-1.2,0.2-2.4,0.2-3.6c0-64.3-52.8-116.4-116.8-116.4c-46.1,0-85.8,27.1-104.4,66.3    c-8.1-4.1-17.1-6.4-26.8-6.4c-29.6,0-54.1,23.6-58.9,52C57.4,187.6,32,222.2,32,261.8c0,49.7,40.1,90.2,89.6,90.2H213v-16h-90.6    c-40.9,0-74.2-33.5-74.2-74.6c0-31.8,20.2-61.2,50.2-71.6l8.4-2.9l1.5-8.8c3.6-21.6,22.1-39.3,43.9-39.3c6.9,0,13.7,1.6,19.9,4.8    l13.5,6.8l6.5-13.7c16.6-34.9,52.1-57.4,90.4-57.4c55.3,0,100.9,43.3,100.9,98.9c0,13.3-0.2,20.3-0.2,20.3l15.2,0.1    C435,199.1,464,232,464,268.9c0,36.8-29.8,66.9-66.5,67.1l-3.2,0H297v16h101h0c45,0,82-37.3,82-82.8    C480,223.7,444.5,183.7,399.3,183.6z"
         id="path11"
         style="fill:#ffffff" /></g></g></svg>