<?xml version="1.0" encoding="UTF-8" standalone="no"?>
<!-- Generator: Adobe Illustrator 16.2.1, SVG Export Plug-In . SVG Version: 6.00 Build 0)  -->

<svg
   xmlns:dc="http://purl.org/dc/elements/1.1/"
   xmlns:cc="http://creativecommons.org/ns#"
   xmlns:rdf="http://www.w3.org/1999/02/22-rdf-syntax-ns#"
   xmlns:svg="http://www.w3.org/2000/svg"
   xmlns="http://www.w3.org/2000/svg"
   xmlns:sodipodi="http://sodipodi.sourceforge.net/DTD/sodipodi-0.dtd"
   xmlns:inkscape="http://www.inkscape.org/namespaces/inkscape"
   version="1.1"
   id="Layer_1"
   x="0px"
   y="0px"
   width="512px"
   height="512px"
   viewBox="0 0 512 512"
   style="enable-background:new 0 0 512 512;"
   xml:space="preserve"
   inkscape:version="0.91 r13725"
   sodipodi:docname="ios-search.svg"><metadata
     id="metadata9"><rdf:RDF><cc:Work
         rdf:about=""><dc:format>image/svg+xml</dc:format><dc:type
           rdf:resource="http://purl.org/dc/dcmitype/StillImage" /></cc:Work></rdf:RDF></metadata><defs
     id="defs7" /><sodipodi:namedview
     pagecolor="#ffffff"
     bordercolor="#666666"
     borderopacity="1"
     objecttolerance="10"
     gridtolerance="10"
     guidetolerance="10"
     inkscape:pageopacity="0"
     inkscape:pageshadow="2"
     inkscape:window-width="1366"
     inkscape:window-height="718"
     id="namedview5"
     showgrid="false"
     inkscape:zoom="0.4609375"
     inkscape:cx="258.16949"
     inkscape:cy="256"
     inkscape:window-x="0"
     inkscape:window-y="25"
     inkscape:window-maximized="1"
     inkscape:current-layer="Layer_1" /><path
     d="M 448.3,364.7 335,251.3 c 20.8,-26 33.3,-59.1 33.3,-95.1 C 368.3,72.1 300.2,4 216.3,4 c -84,0 -152,68.2 -152,152.2 0,84 68.1,152.2 152,152.2 36.2,0 69.4,-12.7 95.5,-33.8 L 425,388 448.3,364.7 Z M 120.1,252.6 C 94.4,226.9 80.3,192.7 80.3,156.3 80.3,119.9 94.5,85.7 120.1,60 145.7,34.3 180,20 216.3,20 c 36.3,0 70.5,14.2 96.2,39.9 25.7,25.7 39.8,59.9 39.8,96.3 0,36.4 -14.2,70.6 -39.8,96.3 -25.7,25.7 -59.9,39.9 -96.2,39.9 -36.3,0.1 -70.5,-14.1 -96.2,-39.8 z"
     id="path3"
     style="fill:#ffffff"
     inkscape:connector-curvature="0" /></svg>