<?xml version="1.0" encoding="UTF-8" standalone="no"?>
<!-- Generator: Adobe Illustrator 16.2.1, SVG Export Plug-In . SVG Version: 6.00 Build 0)  -->

<svg
   xmlns:dc="http://purl.org/dc/elements/1.1/"
   xmlns:cc="http://creativecommons.org/ns#"
   xmlns:rdf="http://www.w3.org/1999/02/22-rdf-syntax-ns#"
   xmlns:svg="http://www.w3.org/2000/svg"
   xmlns="http://www.w3.org/2000/svg"
   xmlns:sodipodi="http://sodipodi.sourceforge.net/DTD/sodipodi-0.dtd"
   xmlns:inkscape="http://www.inkscape.org/namespaces/inkscape"
   version="1.1"
   id="Layer_1"
   x="0px"
   y="0px"
   width="512px"
   height="512px"
   viewBox="0 0 512 512"
   style="enable-background:new 0 0 512 512;"
   xml:space="preserve"
   inkscape:version="0.91 r13725"
   sodipodi:docname="ios-cloud-outline.svg"><metadata
     id="metadata9"><rdf:RDF><cc:Work
         rdf:about=""><dc:format>image/svg+xml</dc:format><dc:type
           rdf:resource="http://purl.org/dc/dcmitype/StillImage" /></cc:Work></rdf:RDF></metadata><defs
     id="defs7" /><sodipodi:namedview
     pagecolor="#ffffff"
     bordercolor="#666666"
     borderopacity="1"
     objecttolerance="10"
     gridtolerance="10"
     guidetolerance="10"
     inkscape:pageopacity="0"
     inkscape:pageshadow="2"
     inkscape:window-width="1366"
     inkscape:window-height="718"
     id="namedview5"
     showgrid="false"
     inkscape:zoom="0.4609375"
     inkscape:cx="-36.881356"
     inkscape:cy="256"
     inkscape:window-x="0"
     inkscape:window-y="25"
     inkscape:window-maximized="1"
     inkscape:current-layer="Layer_1" /><path
     d="M399.3,232.8c0-1.2,0.2-2.4,0.2-3.6c0-64.3-52.8-117.2-116.8-117.2c-46.1,0-85.8,27.9-104.4,67c-8.1-4.1-17.1-6.4-26.8-6.4  c-29.6,0-54.1,23.7-58.9,52C57.4,236.8,32,268.8,32,308.4c0,49.8,40.1,91.6,89.6,91.6H398c45,0,82-38.9,82-84.3  C480,270.1,444.6,232.9,399.3,232.8z M397.5,383.6l-3.2,0.4H122.4c-40.9,0-74.2-34.9-74.2-76.1c0-31.9,20.2-58.4,50.2-68.8l8.4-3  l1.5-8.8c3.6-21.6,22.1-39.3,43.9-39.3c6.9,0,13.7,1.6,19.9,4.8l13.5,6.8l6.5-13.7c16.6-34.9,52.1-58.2,90.4-58.2  c55.3,0,100.9,44.1,100.9,99.7c0,13.3-0.2,20.3-0.2,20.3l15.2,0.1c36.7,0.5,65.6,30.5,65.6,67.4C464,352.1,434.2,383.4,397.5,383.6z  "
     id="path3"
     style="fill:#cccccc" /></svg>