<?xml version="1.0" encoding="utf-8"?>
<!-- Generator: Adobe Illustrator 15.1.0, SVG Export Plug-In . SVG Version: 6.00 Build 0)  -->
<!DOCTYPE svg PUBLIC "-//W3C//DTD SVG 1.1//EN" "http://www.w3.org/Graphics/SVG/1.1/DTD/svg11.dtd">
<svg version="1.1" id="Layer_1" xmlns="http://www.w3.org/2000/svg" xmlns:xlink="http://www.w3.org/1999/xlink" x="0px" y="0px"
	 width="12px" height="12px" viewBox="0 0 12 12" enable-background="new 0 0 12 12" xml:space="preserve">
<path fill-rule="evenodd" clip-rule="evenodd" fill="#FFFFFF" d="M11.5,12H9c-0.276,0-0.5-0.224-0.5-0.5S8.724,11,9,11h0.5
	C9.224,11,9,10.776,9,10.5c0-0.208,0.127-0.386,0.308-0.461L7.766,8.496C7.76,8.497,7.756,8.5,7.75,8.5C7.336,8.5,7,8.164,7,7.75
	S7.336,7,7.75,7S8.5,7.336,8.5,7.75c0,0.006-0.003,0.01-0.003,0.016l1.542,1.542C10.114,9.127,10.292,9,10.5,9
	C10.775,9,11,9.224,11,9.5l0,0V9c0-0.276,0.224-0.5,0.5-0.5S12,8.724,12,9v2.5C12,11.776,11.776,12,11.5,12z M11.5,3.5
	C11.224,3.5,11,3.276,11,3V2.5C11,2.776,10.775,3,10.5,3c-0.213,0-0.392-0.134-0.464-0.321L8.494,4.221
	c0,0.01,0.006,0.019,0.006,0.029C8.5,4.664,8.164,5,7.75,5S7,4.664,7,4.25S7.336,3.5,7.75,3.5c0.001,0,0.001,0,0.002,0l1.545-1.545
	C9.123,1.877,9,1.704,9,1.5C9,1.224,9.224,1,9.5,1H9C8.724,1,8.5,0.776,8.5,0.5C8.5,0.224,8.724,0,9,0h2.439
	c0.012-0.001,0.022,0.005,0.034,0.005C11.483,0.005,11.49,0,11.5,0c0.095,0,0.179,0.034,0.254,0.08
	c0.024,0.014,0.047,0.028,0.068,0.045c0.021,0.018,0.038,0.037,0.056,0.058c0.022,0.026,0.041,0.055,0.058,0.085
	c0.011,0.019,0.021,0.036,0.029,0.057C11.985,0.38,12,0.438,12,0.5V3C12,3.276,11.776,3.5,11.5,3.5z M4.25,8.5
	c-0.011,0-0.02-0.006-0.029-0.006l-1.542,1.542C2.866,10.108,3,10.287,3,10.5C3,10.776,2.775,11,2.5,11H3c0.276,0,0.5,0.224,0.5,0.5
	S3.276,12,3,12H0.5c-0.063,0-0.12-0.015-0.175-0.035c-0.021-0.008-0.038-0.019-0.057-0.029c-0.03-0.017-0.06-0.035-0.086-0.058
	c-0.021-0.018-0.04-0.035-0.058-0.056c-0.018-0.021-0.031-0.045-0.046-0.068C0.033,11.679,0,11.596,0,11.5
	c0-0.01,0.005-0.018,0.005-0.025c0-0.012-0.006-0.023-0.005-0.035V9c0-0.276,0.224-0.5,0.5-0.5C0.775,8.5,1,8.724,1,9v0.5
	C1,9.224,1.224,9,1.5,9c0.203,0,0.377,0.123,0.455,0.297L3.5,7.752c0,0,0-0.001,0-0.002C3.5,7.336,3.836,7,4.25,7S5,7.336,5,7.75
	S4.664,8.5,4.25,8.5z M4.25,5C3.836,5,3.5,4.664,3.5,4.25c0-0.006,0.003-0.01,0.003-0.016L1.961,2.692C1.886,2.873,1.708,3,1.5,3
	C1.224,3,1,2.776,1,2.5V3c0,0.276-0.225,0.5-0.5,0.5C0.224,3.5,0,3.276,0,3V0.544c-0.001-0.009,0.003-0.018,0.003-0.026
	C0.003,0.511,0,0.506,0,0.5c0-0.028,0.012-0.053,0.016-0.08c0.006-0.035,0.008-0.07,0.021-0.103C0.054,0.275,0.08,0.24,0.107,0.204
	c0.014-0.019,0.02-0.042,0.037-0.06C0.254,0.035,0.4-0.01,0.544,0H3c0.276,0,0.5,0.224,0.5,0.5C3.5,0.776,3.276,1,3,1H2.5
	C2.775,1,3,1.224,3,1.5c0,0.208-0.127,0.386-0.309,0.461l1.542,1.542C4.239,3.503,4.244,3.5,4.25,3.5C4.664,3.5,5,3.836,5,4.25
	S4.664,5,4.25,5z"/>
</svg>
